# xmcd CD database file
#
# Track frame offsets:
#	150
#	12570
#	26935
#	44333
#	57948
#	81547
#	95818
#	109980
#	121440
#	135929
#	152099
#	167232
#	186213
#	202632
#	218212
#	232838
#
# Disc length: 3485 seconds
#
# Revision: 1
# Processed by: cddbd v1.5.1PL2 Copyright (c) Steve Scherf et al.
# Submitted via: cdripper 1,0,32,406
#
DISCID=df0d9b10
DTITLE=Roy Orbison And Friends - A Black And White Night Live
DYEAR=1989
DGENRE=Classic Rock
TTITLE0=Only The Lonely
TTITLE1=In Dreams
TTITLE2=Dream Baby
TTITLE3=Leah
TTITLE4=Move On Down The Lane
TTITLE5=Crying
TTITLE6=Mean Woman Blues
TTITLE7=Running Scared
TTITLE8=Blue Bayou
TTITLE9=Candy Man
TTITLE10=Uptown
TTITLE11=Ooby Dooby
TTITLE12=The Comedians
TTITLE13=Dream You
TTITLE14=It's Over
TTITLE15=Oh Pretty Woman
EXTD=YEAR: 1989
EXTT0=
EXTT1=
EXTT2=
EXTT3=
EXTT4=
EXTT5=
EXTT6=
EXTT7=
EXTT8=
EXTT9=
EXTT10=
EXTT11=
EXTT12=
EXTT13=
EXTT14=
EXTT15=
PLAYORDER=
